PathFileType	4	(X/Y/Z)	RBDS028static.trc
DataRate	CameraRate	NumFrames	NumMarkers	Units	OrigDataRate	OrigDataStartFrame	OrigNumFrames
150.000000	150.000000	4	48	mm	150.000000	37	150
Frame#	Time	L.Ankle			L.Ankle.Medial			L.ASIS			L.GTR			L.Heel.Bottom			L.Heel.Lateral			L.Heel.Top			L.HF			L.Iliac.Crest			L.Knee			L.Knee.Medial			L.MT1			L.MT2			L.MT5			L.PSIS			L.Shank.Bottom.Lateral			L.Shank.Bottom.Medial			L.Shank.Top.Lateral			L.Shank.Top.Medial			L.Thigh.Bottom.Lateral			L.Thigh.Bottom.Medial			L.Thigh.Top.Lateral			L.Thigh.Top.Medial			L.TT			R.Ankle			R.Ankle.Medial			R.ASIS			R.GTR			R.Heel.Bottom			R.Heel.Lateral			R.Heel.Top			R.HF			R.Iliac.Crest			R.Knee			R.Knee.Medial			R.MT1			R.MT2			R.MT5			R.PSIS			R.Shank.Bottom.Lateral			R.Shank.Bottom.Medial			R.Shank.Top.Lateral			R.Shank.Top.Medial			R.Thigh.Bottom.Lateral			R.Thigh.Bottom.Medial			R.Thigh.Top.Lateral			R.Thigh.Top.Medial			R.TT			
		X1	Y1	Z1	X2	Y2	Z2	X3	Y3	Z3	X4	Y4	Z4	X5	Y5	Z5	X6	Y6	Z6	X7	Y7	Z7	X8	Y8	Z8	X9	Y9	Z9	X10	Y10	Z10	X11	Y11	Z11	X12	Y12	Z12	X13	Y13	Z13	X14	Y14	Z14	X15	Y15	Z15	X16	Y16	Z16	X17	Y17	Z17	X18	Y18	Z18	X19	Y19	Z19	X20	Y20	Z20	X21	Y21	Z21	X22	Y22	Z22	X23	Y23	Z23	X24	Y24	Z24	X25	Y25	Z25	X26	Y26	Z26	X27	Y27	Z27	X28	Y28	Z28	X29	Y29	Z29	X30	Y30	Z30	X31	Y31	Z31	X32	Y32	Z32	X33	Y33	Z33	X34	Y34	Z34	X35	Y35	Z35	X36	Y36	Z36	X37	Y37	Z37	X38	Y38	Z38	X39	Y39	Z39	X40	Y40	Z40	X41	Y41	Z41	X42	Y42	Z42	X43	Y43	Z43	X44	Y44	Z44	X45	Y45	Z45	X46	Y46	Z46	X47	Y47	Z47	X48	Y48	Z48	

38	0.2466666666666667	712.1009521484375	92.90467834472656	1051.63720703125	730.490234375	106.2675552368164	1133.753295898438	836.1821899414063	893.4376831054688	1108.087036132813	789.6109619140625	805.5919189453125	1061.340209960938	638.258056640625	39.18814086914063	1087.653198242188	668.3980102539063	56.46167755126953	1044.851318359375	649.1859741210938	83.58070373535156	1088.631713867188	744.4717407226563	412.9700317382813	1051.774169921875	772.602783203125	944.3607177734375	1078.494750976563	749.4778442382813	475.8435668945313	1059.119995117188	732.3068237304688	453.0796508789063	1171.7763671875	855.9968872070313	53.49336242675781	1132.02734375	858.18310546875	65.75258636474609	1084.619262695313	823.435546875	46.63703918457031	1021.420288085938	680.6503295898438	924.1780395507813	1177.784912109375	714.390380859375	171.5452423095703	1043.947875976563	673.8253173828125	170.0949554443359	1075.248657226563	705.9304809570313	251.1520538330078	1031.937866210938	667.4697875976563	254.3562164306641	1068.444091796875	772.6270141601563	574.5980224609375	1040.081176757813	705.6559448242188	576.781494140625	1068.495849609375	774.5802612304688	684.89599609375	1040.070678710938	712.5992431640625	685.6168823242188	1071.966674804688	790.2147216796875	393.1871643066406	1103.869140625	707.201904296875	99.154052734375	1406.774780273438	726.2963256835938	107.7564926147461	1324.609985351563	829.7891235351563	901.3666381835938	1347.880981445313	779.5611572265625	815.1653442382813	1393.117431640625	636.666259765625	38.29971694946289	1369.06640625	666.67578125	59.37722778320313	1410.755493164063	646.8023071289063	83.54419708251953	1367.505981445313	734.8707885742188	419.9972839355469	1403.499877929688	777.5769653320313	962.4414672851563	1366.894653320313	738.2030639648438	482.3105773925781	1396.59716796875	733.5855712890625	458.6975708007813	1280.26904296875	853.6878662109375	53.84370040893555	1331.64013671875	857.9967651367188	64.23788452148438	1379.9658203125	819.7122192382813	46.64531326293945	1441.613525390625	679.9471435546875	927.3976440429688	1270.604248046875	705.1044311523438	178.2955474853516	1414.57470703125	666.4456787109375	178.2417755126953	1374.243041992188	694.740966796875	258.527099609375	1421.966796875	659.0782470703125	257.8192443847656	1381.674194335938	747.7452392578125	570.2141723632813	1410.885375976563	688.2216186523438	572.9144897460938	1370.122802734375	751.25830078125	680.7164306640625	1410.180053710938	694.0953979492188	682.6549682617188	1371.755981445313	779.7621459960938	395.69873046875	1358.368896484375	
39	0.2533333333333334	712.095947265625	92.89918518066406	1051.640747070313	730.4769897460938	106.2658233642578	1133.757690429688	836.1290283203125	893.4472045898438	1108.085693359375	789.5620727539063	805.5932006835938	1061.342895507813	638.2574462890625	39.18064880371094	1087.650390625	668.4039306640625	56.4525146484375	1044.848022460938	649.1786499023438	83.57932281494141	1088.637451171875	744.4308471679688	412.9649963378906	1051.763061523438	772.551513671875	944.366455078125	1078.490966796875	749.4431762695313	475.8375549316406	1059.109985351563	732.2820434570313	453.0599060058594	1171.7666015625	855.9963989257813	53.50438690185547	1132.026000976563	858.1784057617188	65.75514221191406	1084.619506835938	823.4357299804688	46.64692687988281	1021.412780761719	680.595947265625	924.1700439453125	1177.784057617188	714.3773193359375	171.5416564941406	1043.932861328125	673.8067626953125	170.0800476074219	1075.248413085938	705.9048461914063	251.1441955566406	1031.9404296875	667.4452514648438	254.3495483398438	1068.4443359375	772.5848388671875	574.614013671875	1040.068725585938	705.6318969726563	576.7702026367188	1068.49267578125	774.528564453125	684.8920288085938	1040.069458007813	712.5550537109375	685.6015625	1071.967895507813	790.1862182617188	393.1978759765625	1103.866821289063	707.1934814453125	99.14945983886719	1406.774047851563	726.296875	107.7684478759766	1324.609741210938	829.7255859375	901.3756103515625	1347.876220703125	779.4848022460938	815.1917114257813	1393.1259765625	636.672119140625	38.29335021972656	1369.056884765625	666.6708374023438	59.36659622192383	1410.748046875	646.7935180664063	83.53167724609375	1367.51171875	734.8366088867188	419.989501953125	1403.4970703125	777.5216064453125	962.4320678710938	1366.878784179688	738.1676635742188	482.3082580566406	1396.574584960938	733.5421752929688	458.6967163085938	1280.2646484375	853.6848754882813	53.84712600708008	1331.64453125	857.9974365234375	64.23905944824219	1379.962524414063	819.7095947265625	46.64192962646484	1441.61962890625	679.879638671875	927.3919067382813	1270.583618164063	705.0907592773438	178.2893676757813	1414.570678710938	666.4292602539063	178.2333984375	1374.238525390625	694.713623046875	258.5309448242188	1421.958374023438	659.0574340820313	257.8096923828125	1381.66943359375	747.6876220703125	570.2200927734375	1410.88232421875	688.1690673828125	572.9068603515625	1370.109497070313	751.1998291015625	680.7174682617188	1410.171142578125	694.0421142578125	682.654052734375	1371.736328125	779.733154296875	395.6973876953125	1358.363037109375	
40	0.26	712.0968017578125	92.89171600341797	1051.642944335938	730.4706420898438	106.2695541381836	1133.75341796875	836.0797119140625	893.4495239257813	1108.078857421875	789.5200805664063	805.5741577148438	1061.347534179688	638.2549438476563	39.17475891113281	1087.65576171875	668.4151000976563	56.45119476318359	1044.841064453125	649.1762084960938	83.57956695556641	1088.624755859375	744.3944702148438	412.9571228027344	1051.7705078125	772.4940185546875	944.3654174804688	1078.484619140625	749.3939819335938	475.8302917480469	1059.110229492188	732.2606201171875	453.0584716796875	1171.779296875	855.9950561523438	53.50634384155273	1132.0302734375	858.17578125	65.7547607421875	1084.6279296875	823.4354248046875	46.6435661315918	1021.412658691406	680.5449829101563	924.1656494140625	1177.77392578125	714.3651733398438	171.5350189208984	1043.938232421875	673.79833984375	170.0691986083984	1075.2548828125	705.8787841796875	251.1510772705078	1031.939086914063	667.421142578125	254.3398895263672	1068.448486328125	772.56298828125	574.5958251953125	1040.062744140625	705.6131591796875	576.7566528320313	1068.491333007813	774.4902954101563	684.8905639648438	1040.072875976563	712.5091552734375	685.5916748046875	1071.971069335938	790.1402587890625	393.2056274414063	1103.861450195313	707.1827392578125	99.13450622558594	1406.77734375	726.2948608398438	107.747428894043	1324.616577148438	829.656982421875	901.3754272460938	1347.876098632813	779.425048828125	815.1862182617188	1393.119750976563	636.6761474609375	38.29130172729492	1369.065185546875	666.6675415039063	59.37172317504883	1410.750854492188	646.8011474609375	83.53170776367188	1367.51171875	734.8004760742188	419.986572265625	1403.498657226563	777.4666137695313	962.4418334960938	1366.868896484375	738.12646484375	482.3117980957031	1396.581176757813	733.5159301757813	458.690185546875	1280.265014648438	853.6845703125	53.83859252929688	1331.643920898438	858.0000610351563	64.243896484375	1379.955932617188	819.7088623046875	46.64736938476563	1441.616577148438	679.8194580078125	927.396240234375	1270.595703125	705.0840454101563	178.2977294921875	1414.572265625	666.4157104492188	178.2309265136719	1374.236938476563	694.6876220703125	258.517578125	1421.958862304688	659.04248046875	257.8031921386719	1381.664184570313	747.63134765625	570.216552734375	1410.8671875	688.118408203125	572.9055786132813	1370.094482421875	751.13623046875	680.716796875	1410.167846679688	693.9859619140625	682.6470947265625	1371.728637695313	779.6979370117188	395.70361328125	1358.360107421875	
41	0.2666666666666667	712.09619140625	92.89413452148438	1051.628173828125	730.4721069335938	106.2720565795898	1133.756469726563	836.0404052734375	893.4527587890625	1108.083862304688	789.4657592773438	805.5844116210938	1061.342651367188	638.2643432617188	39.17683792114258	1087.648803710938	668.4086303710938	56.4433708190918	1044.841064453125	649.172607421875	83.57656860351563	1088.624389648438	744.3634033203125	412.9537658691406	1051.766845703125	772.4534301757813	944.3230590820313	1078.555786132813	749.3621826171875	475.8349304199219	1059.103759765625	732.2294921875	453.0462341308594	1171.767211914063	855.9946899414063	53.50799179077148	1132.026733398438	858.1812744140625	65.75818634033203	1084.6162109375	823.42724609375	46.64696502685547	1021.409118652344	680.4823608398438	924.1697998046875	1177.770629882813	714.3632202148438	171.5303344726563	1043.940795898438	673.792236328125	170.0476226806641	1075.24951171875	705.8675537109375	251.1384735107422	1031.942260742188	667.404052734375	254.333984375	1068.453491210938	772.5401611328125	574.5997314453125	1040.06201171875	705.5870971679688	576.7386474609375	1068.499389648438	774.433349609375	684.8892822265625	1040.069213867188	712.4689331054688	685.5763549804688	1071.982299804688	790.0985107421875	393.1981506347656	1103.851684570313	707.1875610351563	99.14658355712891	1406.782958984375	726.310791015625	107.7344284057617	1324.617797851563	829.6006469726563	901.3814697265625	1347.860717773438	779.3659057617188	815.2000122070313	1393.12939453125	636.6681518554688	38.28788757324219	1369.062622070313	666.672119140625	59.36697769165039	1410.758911132813	646.794921875	83.52530670166016	1367.517700195313	734.7696533203125	419.9949340820313	1403.499267578125	777.4172973632813	962.4448852539063	1366.86181640625	738.10302734375	482.311279296875	1396.573974609375	733.493408203125	458.6860046386719	1280.270874023438	853.6847534179688	53.84016799926758	1331.643798828125	858.00048828125	64.24641418457031	1379.9599609375	819.7166748046875	46.64328002929688	1441.616821289063	679.7620239257813	927.3898315429688	1270.570922851563	705.0670776367188	178.2867736816406	1414.583251953125	666.4052734375	178.2174072265625	1374.229125976563	694.6749877929688	258.5243530273438	1421.954956054688	659.0205688476563	257.7944641113281	1381.664794921875	747.5782470703125	570.2254638671875	1410.872192382813	688.0680541992188	572.9009399414063	1370.088134765625	751.0791015625	680.7151489257813	1410.166381835938	693.9371948242188	682.6512451171875	1371.705688476563	779.6834716796875	395.7059020996094	1358.363525390625	
